<svg width="21" height="16"  fill="none" xmlns="http://www.w3.org/2000/svg">
<path fill-rule="evenodd" clip-rule="evenodd" d="M0.830017 3C0.830017 1.34315 2.17316 0 3.83002 0H17.83C19.4869 0 20.83 1.34315 20.83 3V13C20.83 14.6569 19.4869 16 17.83 16H3.83002C2.17316 16 0.830017 14.6569 0.830017 13V3ZM3.83002 1.5H17.83C18.4798 1.5 19.033 1.91311 19.2415 2.49101L11.5234 7.63638C11.1035 7.91629 10.5565 7.91629 10.1367 7.63638L2.41858 2.491C2.62702 1.91311 3.18028 1.5 3.83002 1.5ZM2.33002 4.23473V13C2.33002 13.8284 3.00159 14.5 3.83002 14.5H17.83C18.6584 14.5 19.33 13.8284 19.33 13V4.23474L12.3555 8.88445C11.4317 9.50027 10.2283 9.50027 9.3046 8.88445L2.33002 4.23473Z" fill="black"/>
</svg>
