<svg width="26" height="24"  fill="none" xmlns="http://www.w3.org/2000/svg">
<path fill-rule="evenodd" clip-rule="evenodd" d="M9.60376 4.75C9.14203 4.75 8.73779 4.99996 8.52053 5.37554C8.31312 5.73409 7.85433 5.85661 7.49578 5.6492C7.13723 5.4418 7.01471 4.983 7.22212 4.62446C7.69648 3.80444 8.58493 3.25 9.60376 3.25C11.1225 3.25 12.3538 4.48122 12.3538 6C12.3538 7.51878 11.1225 8.75 9.60376 8.75H4.60376C4.18955 8.75 3.85376 8.41421 3.85376 8C3.85376 7.58579 4.18955 7.25 4.60376 7.25H9.60376C10.2941 7.25 10.8538 6.69036 10.8538 6C10.8538 5.30964 10.2941 4.75 9.60376 4.75Z" fill="#215EE9"/>
<path fill-rule="evenodd" clip-rule="evenodd" d="M14.6038 19.25C14.142 19.25 13.7378 19 13.5205 18.6245C13.3131 18.2659 12.8543 18.1434 12.4958 18.3508C12.1372 18.5582 12.0147 19.017 12.2221 19.3755C12.6965 20.1956 13.5849 20.75 14.6038 20.75C16.1225 20.75 17.3538 19.5188 17.3538 18C17.3538 16.4812 16.1225 15.25 14.6038 15.25H4.60376C4.18955 15.25 3.85376 15.5858 3.85376 16C3.85376 16.4142 4.18955 16.75 4.60376 16.75H14.6038C15.2941 16.75 15.8538 17.3096 15.8538 18C15.8538 18.6904 15.2941 19.25 14.6038 19.25Z" fill="#215EE9"/>
<path fill-rule="evenodd" clip-rule="evenodd" d="M17.6038 6.75C16.6253 6.75 15.7908 7.37503 15.4816 8.24993C15.3436 8.64047 14.9151 8.84517 14.5245 8.70713C14.134 8.56909 13.9293 8.1406 14.0673 7.75007C14.5818 6.29459 15.9698 5.25 17.6038 5.25C19.6748 5.25 21.3538 6.92893 21.3538 9C21.3538 11.0711 19.6748 12.75 17.6038 12.75H4.60376C4.18955 12.75 3.85376 12.4142 3.85376 12C3.85376 11.5858 4.18955 11.25 4.60376 11.25H17.6038C18.8464 11.25 19.8538 10.2426 19.8538 9C19.8538 7.75736 18.8464 6.75 17.6038 6.75Z" fill="#215EE9"/>
</svg>
