<svg width="24" height="22"  fill="none" xmlns="http://www.w3.org/2000/svg">
<path fill-rule="evenodd" clip-rule="evenodd" d="M15.0254 16.5H19.229C19.945 16.5 20.5254 15.9196 20.5254 15.2036C20.5254 14.8598 20.3888 14.5301 20.1457 14.287L19.229 13.3703C18.8852 13.0265 18.6921 12.5602 18.6921 12.074L18.6921 9.13979C18.6921 5.10455 15.4209 1.83334 11.3856 1.83334C7.34181 1.83334 4.06706 5.11793 4.0792 9.16173L4.08787 12.052C4.08937 12.5512 3.88725 13.0294 3.5282 13.3762L2.58499 14.2872C2.33389 14.5297 2.19208 14.8638 2.19208 15.2129C2.19208 15.9238 2.76832 16.5 3.47915 16.5H7.69208C7.69208 18.5251 9.3337 20.1667 11.3587 20.1667C13.3838 20.1667 15.0254 18.5251 15.0254 16.5ZM18.2568 14.3426L19.0392 15.125H3.69675L4.48345 14.3652C5.11178 13.7583 5.46549 12.9214 5.46287 12.0479L5.45419 9.1576C5.44433 5.87481 8.10281 3.20834 11.3856 3.20834C14.6615 3.20834 17.3171 5.86394 17.3171 9.13979L17.3171 12.074C17.3171 12.9249 17.6551 13.7409 18.2568 14.3426ZM13.6504 16.5H9.06708C9.06708 17.7657 10.0931 18.7917 11.3587 18.7917C12.6244 18.7917 13.6504 17.7657 13.6504 16.5Z" fill="#225FE9"/>
</svg>
